# xmcd
#
# Track frame offsets:
#	183
#	11755
#	22583
#	33183
#	46030
#	59148
#	71255
#	80003
#	90610
#	102010
#	112003
#	125030
#	138598
#	155633
#	165683
#	179815
#	189775
#	202238
#	211533
#
# Disc length: 3003 seconds
#
# Revision: 2
# Processed by: cddbd v1.4PL0 Copyright (c) Steve Scherf et al.
# Submitted via: MusicWizard 6.0.0
#
DISCID=040bb913
DTITLE=Various Artist - ALL TIME 75_ COUNTRY and WESTERN CD2
DYEAR=1900
DGENRE=Country
TTITLE0=ROGER MILLER - LITTLE GREEN APPLES
TTITLE1=JOHNNY CASH - THE WAYS OF A WOMAN IN LOVE
TTITLE2=PATSY CLINE - CRAZY
TTITLE3=FRANKIE LAINE - RAIN RAIN RAIN
TTITLE4=WILLIE NELSON - I JUST DONT UNDERSTAND
TTITLE5=DOLLY PARTON - TWO LITTLE ORPHANS
TTITLE6=FERLIN HUSKY - WINGS OF A DOVE
TTITLE7=FREDDY FENDER - A MAN CAN CRY
TTITLE8=FRANKIE LAINE - ANSWER ME
TTITLE9=DAVE DUDDLEY - SIX DAYS ON THE ROAD
TTITLE10=KENNY ROGERS - RUBY DONT TAKE YOUR LOVE TO TOWN
TTITLE11=JIMMY DEAN - BIG BAD JOHN
TTITLE12=WILLIE NELSON - I LET MY MIND WANDER
TTITLE13=DOLLY PARTON - RELEASE ME
TTITLE14=GEORGE JONES - A GOOD YEAR FOR THE ROSES
TTITLE15=JOHNNY CASH - BALLAD OF A TEENAGE QUEEN
TTITLE16=KENNY ROGERS - REUBEN JAMES
TTITLE17=FRANKIE LANE - RAWHIDE
TTITLE18=WILLIE NELSON - NO TOMMORROW IN SIGHT
EXTD=ID3G:   2
EXTT0=
EXTT1=
EXTT2=
EXTT3=
EXTT4=
EXTT5=
EXTT6=
EXTT7=
EXTT8=
EXTT9=
EXTT10=
EXTT11=
EXTT12=
EXTT13=
EXTT14=
EXTT15=
EXTT16=
EXTT17=
EXTT18=
PLAYORDER=
